# xmcd CD database file
#
# Track frame offsets:
#	150
#	13902
#	27121
#	39528
#	52766
#	66984
#	81257
#	93317
#	105926
#	118802
#	132272
#	144726
#	159796
#	172717
#	186804
#	199887
#	213546
#	227136
#	240606
#	255424
#
# Disc length: 3577 seconds
#
# Revision: 2
# Processed by: cddbd v1.5.2PL0 Copyright (c) Steve Scherf et al.
# Submitted via: CDex 1.51
#
DISCID=080df714
DTITLE=Big Bill Broonzy - Volume 2 The Post War Years
DYEAR=1900
DGENRE=Blues
TTITLE0=Why Did You Do That To Me
TTITLE1=Where The Blues Began
TTITLE2=Roll Them Bones
TTITLE3=I Can Fix It
TTITLE4=Saturday Evening Blues
TTITLE5=Texas Tornado Blues
TTITLE6=Just Rocking
TTITLE7=Stop Lying Woman
TTITLE8=Rambling Bill
TTITLE9=I Love My Whiskey
TTITLE10=Water Coast Blues
TTITLE11=Five Feet Seven
TTITLE12=I Wonder
TTITLE13=Mindin' My Own Business
TTITLE14=Hey Hey
TTITLE15=Get Back
TTITLE16=Leavin' Day
TTITLE17=Southbound Train
TTITLE18=John Henry
TTITLE19=Crawdad
EXTD=
EXTT0=
EXTT1=
EXTT2=
EXTT3=
EXTT4=
EXTT5=
EXTT6=
EXTT7=
EXTT8=
EXTT9=
EXTT10=
EXTT11=
EXTT12=
EXTT13=
EXTT14=
EXTT15=
EXTT16=
EXTT17=
EXTT18=
EXTT19=
PLAYORDER=
